<?xml version="1.0" encoding="UTF-8" standalone="no"?>
<svg
   xmlns:dc="http://purl.org/dc/elements/1.1/"
   xmlns:cc="http://creativecommons.org/ns#"
   xmlns:rdf="http://www.w3.org/1999/02/22-rdf-syntax-ns#"
   xmlns:svg="http://www.w3.org/2000/svg"
   xmlns="http://www.w3.org/2000/svg"
   xmlns:sodipodi="http://sodipodi.sourceforge.net/DTD/sodipodi-0.dtd"
   xmlns:inkscape="http://www.inkscape.org/namespaces/inkscape"
   height="512px"
   id="Layer_1"
   style="enable-background:new 0 0 512 512;"
   version="1.1"
   viewBox="0 0 512 512"
   width="512px"
   xml:space="preserve"
   inkscape:version="0.48.5 r10040"
   sodipodi:docname="accomplished-project.svg"><metadata
     id="metadata15"><rdf:RDF><cc:Work
         rdf:about=""><dc:format>image/svg+xml</dc:format><dc:type
           rdf:resource="http://purl.org/dc/dcmitype/StillImage" /></cc:Work></rdf:RDF></metadata><defs
     id="defs13" /><sodipodi:namedview
     pagecolor="#ffffff"
     bordercolor="#666666"
     borderopacity="1"
     objecttolerance="10"
     gridtolerance="10"
     guidetolerance="10"
     inkscape:pageopacity="0"
     inkscape:pageshadow="2"
     inkscape:window-width="1536"
     inkscape:window-height="803"
     id="namedview11"
     showgrid="false"
     inkscape:zoom="0.921875"
     inkscape:cx="-154.27291"
     inkscape:cy="315.85224"
     inkscape:window-x="-8"
     inkscape:window-y="-8"
     inkscape:window-maximized="1"
     inkscape:current-layer="Layer_1" /><g
     id="g3786"
     transform="matrix(6.5809387,0,0,6.7067062,-1434.8234,-2900.671)"><path
       id="path3013"
       d="m 278.77966,469.69492 c 0,19.17083 -11.41295,34.71186 -25.49153,34.71186 -14.07858,0 -25.49152,-15.54103 -25.49152,-34.71186 0,-19.17084 11.41294,-34.71187 25.49152,-34.71187 14.07858,0 25.49153,15.54103 25.49153,34.71187 z"
       style="fill:#27a037;fill-opacity:1;stroke:none"
       transform="matrix(1.3533909,0,0,0.99389648,-85.870471,3.8456867)"
       inkscape:connector-curvature="0" /><g
       transform="translate(231.52641,449.12228)"
       id="g3000"><path
         id="rect3"
         d="M 0,0 50,0 50,50 0,50 z"
         style="fill:none"
         inkscape:connector-curvature="0" /><path
         id="line5"
         d="M 18.594,47.919998 3.3729999,5.4070001"
         style="fill:#129793;fill-opacity:1;stroke:#ffffff;stroke-width:2;stroke-linecap:round;stroke-linejoin:round;stroke-miterlimit:10;stroke-opacity:1"
         inkscape:connector-curvature="0" /><path
         inkscape:connector-curvature="0"
         d="M 4.448,8.409 C 4.448,8.409 10.359,2 20.627,2 26.877,2 29.733,6.073 34.891,6.073 40.046,6.073 44.998,2 44.998,2 v 26.471 c 0,0 -3.723,2.037 -8.146,2.037 -4.421,0 -6.225,-2.037 -12.217,-2.037 -5.683,0 -11.025,5.516 -11.025,5.516 L 4.448,8.409 z"
         stroke-miterlimit="10"
         id="path7"
         style="fill:none;stroke:#ffffff;stroke-width:2;stroke-linecap:round;stroke-linejoin:round;stroke-miterlimit:10;stroke-opacity:1" /><path
         inkscape:connector-curvature="0"
         d="m 4.448,8.409 c 0,0 3.067,-3.248 7.207,-4.584 l 3.164,8.124 c 0,0 -4.086,1.47 -7.422,4.605 L 4.553,8.709"
         id="path9-7"
         style="fill:#ffffff;fill-opacity:1" /><path
         inkscape:connector-curvature="0"
         d="m 14.819,11.949 3.412,8.759 c 0,0 2.683,-0.954 4.53,-0.954 1.847,0 3.678,0.271 3.678,0.271 L 23.962,10.71 c 0,0 -0.7,-0.099 -1.563,-0.099 -4.135,0 -7.58,1.338 -7.58,1.338 z"
         id="path11"
         style="fill:#ffffff;fill-opacity:1" /><path
         inkscape:connector-curvature="0"
         d="m 10.72,25.776 2.89,8.21 c 0,0 3.997,-3.832 7.804,-4.91 l -3.182,-8.368 c -3.666,1.412 -7.512,5.068 -7.512,5.068 z"
         id="path13"
         style="fill:#ffffff;fill-opacity:1" /><path
         inkscape:connector-curvature="0"
         d="m 21.676,2.111 2.287,8.598 c 1.85,0 6.994,2.521 6.994,2.521 L 28.929,4.351 C 27.766,3.916 24.721,2.255 21.676,2.111 z"
         id="path15"
         style="fill:#ffffff;fill-opacity:1" /><path
         inkscape:connector-curvature="0"
         d="m 26.439,20.024 2.355,8.851 c 1.186,0 4.586,1.449 6.065,1.449 l -1.988,-8.702 c -1.914,-0.498 -5.012,-1.399 -6.432,-1.598 z"
         id="path17"
         style="fill:#ffffff;fill-opacity:1" /><path
         inkscape:connector-curvature="0"
         d="m 30.957,13.231 1.915,8.392 c 0,0 1.916,0.354 3.231,0.354 1.314,0 2.953,-0.298 2.953,-0.298 l -0.622,-7.684 c 0,0 -1.269,0.394 -2.807,0.394 -2.402,0 -4.67,-1.158 -4.67,-1.158 z"
         id="path19"
         style="fill:#ffffff;fill-opacity:1" /><path
         inkscape:connector-curvature="0"
         d="m 37.762,5.671 0.673,8.323 c 0,0 3.129,-0.786 6.565,-3.384 L 44.998,2 c -3.945,3.022 -7.236,3.671 -7.236,3.671 z"
         id="path21"
         style="fill:#ffffff;fill-opacity:1" /><path
         inkscape:connector-curvature="0"
         d="m 39.057,21.679 c 0,0 3.014,-0.559 5.941,-2.259 v 9.051 c -3.117,1.496 -5.261,1.767 -5.261,1.767 l -0.68,-8.559 z"
         id="path23"
         style="fill:#ffffff;fill-opacity:1" /></g></g></svg>