<?xml version="1.0" encoding="UTF-8" standalone="no"?>
<svg
   xmlns:dc="http://purl.org/dc/elements/1.1/"
   xmlns:cc="http://creativecommons.org/ns#"
   xmlns:rdf="http://www.w3.org/1999/02/22-rdf-syntax-ns#"
   xmlns:svg="http://www.w3.org/2000/svg"
   xmlns="http://www.w3.org/2000/svg"
   xmlns:sodipodi="http://sodipodi.sourceforge.net/DTD/sodipodi-0.dtd"
   xmlns:inkscape="http://www.inkscape.org/namespaces/inkscape"
   enable-background="new 0 0 32 32"
   height="32px"
   id="Layer_1"
   version="1.1"
   viewBox="0 0 32 32"
   width="32px"
   xml:space="preserve"
   inkscape:version="0.48.5 r10040"
   sodipodi:docname="calendar.svg"><metadata
     id="metadata28"><rdf:RDF><cc:Work
         rdf:about=""><dc:format>image/svg+xml</dc:format><dc:type
           rdf:resource="http://purl.org/dc/dcmitype/StillImage" /></cc:Work></rdf:RDF></metadata><defs
     id="defs26" /><sodipodi:namedview
     pagecolor="#ffffff"
     bordercolor="#666666"
     borderopacity="1"
     objecttolerance="10"
     gridtolerance="10"
     guidetolerance="10"
     inkscape:pageopacity="0"
     inkscape:pageshadow="2"
     inkscape:window-width="708"
     inkscape:window-height="480"
     id="namedview24"
     showgrid="false"
     inkscape:zoom="7.375"
     inkscape:cx="16"
     inkscape:cy="16"
     inkscape:window-x="0"
     inkscape:window-y="0"
     inkscape:window-maximized="0"
     inkscape:current-layer="Layer_1" /><g
     id="calendar_1_"
     style="fill:#999999"><path
       d="M29.334,3H25V1c0-0.553-0.447-1-1-1s-1,0.447-1,1v2h-6V1c0-0.553-0.448-1-1-1s-1,0.447-1,1v2H9V1   c0-0.553-0.448-1-1-1S7,0.447,7,1v2H2.667C1.194,3,0,4.193,0,5.666v23.667C0,30.806,1.194,32,2.667,32h26.667   C30.807,32,32,30.806,32,29.333V5.666C32,4.193,30.807,3,29.334,3z M30,29.333C30,29.701,29.701,30,29.334,30H2.667   C2.299,30,2,29.701,2,29.333V5.666C2,5.299,2.299,5,2.667,5H7v2c0,0.553,0.448,1,1,1s1-0.447,1-1V5h6v2c0,0.553,0.448,1,1,1   s1-0.447,1-1V5h6v2c0,0.553,0.447,1,1,1s1-0.447,1-1V5h4.334C29.701,5,30,5.299,30,5.666V29.333z"
       fill="#333332"
       id="path4"
       style="fill:#999999" /><rect
       fill="#333332"
       height="3"
       width="4"
       x="7"
       y="12"
       id="rect6"
       style="fill:#999999" /><rect
       fill="#333332"
       height="3"
       width="4"
       x="7"
       y="17"
       id="rect8"
       style="fill:#999999" /><rect
       fill="#333332"
       height="3"
       width="4"
       x="7"
       y="22"
       id="rect10"
       style="fill:#999999" /><rect
       fill="#333332"
       height="3"
       width="4"
       x="14"
       y="22"
       id="rect12"
       style="fill:#999999" /><rect
       fill="#333332"
       height="3"
       width="4"
       x="14"
       y="17"
       id="rect14"
       style="fill:#999999" /><rect
       fill="#333332"
       height="3"
       width="4"
       x="14"
       y="12"
       id="rect16"
       style="fill:#999999" /><rect
       fill="#333332"
       height="3"
       width="4"
       x="21"
       y="22"
       id="rect18"
       style="fill:#999999" /><rect
       fill="#333332"
       height="3"
       width="4"
       x="21"
       y="17"
       id="rect20"
       style="fill:#999999" /><rect
       fill="#333332"
       height="3"
       width="4"
       x="21"
       y="12"
       id="rect22"
       style="fill:#999999" /></g></svg>