<?xml version="1.0" encoding="UTF-8" standalone="no"?>
<!-- Generator: Adobe Illustrator 16.0.0, SVG Export Plug-In . SVG Version: 6.00 Build 0)  -->

<svg
   xmlns:dc="http://purl.org/dc/elements/1.1/"
   xmlns:cc="http://creativecommons.org/ns#"
   xmlns:rdf="http://www.w3.org/1999/02/22-rdf-syntax-ns#"
   xmlns:svg="http://www.w3.org/2000/svg"
   xmlns="http://www.w3.org/2000/svg"
   xmlns:sodipodi="http://sodipodi.sourceforge.net/DTD/sodipodi-0.dtd"
   xmlns:inkscape="http://www.inkscape.org/namespaces/inkscape"
   version="1.1"
   id="Layer_1"
   x="0px"
   y="0px"
   width="50px"
   height="50px"
   viewBox="0 0 50 50"
   enable-background="new 0 0 50 50"
   xml:space="preserve"
   inkscape:version="0.48.5 r10040"
   sodipodi:docname="piggy-bank.svg"><metadata
   id="metadata17"><rdf:RDF><cc:Work
       rdf:about=""><dc:format>image/svg+xml</dc:format><dc:type
         rdf:resource="http://purl.org/dc/dcmitype/StillImage" /></cc:Work></rdf:RDF></metadata><defs
   id="defs15" /><sodipodi:namedview
   pagecolor="#ffffff"
   bordercolor="#666666"
   borderopacity="1"
   objecttolerance="10"
   gridtolerance="10"
   guidetolerance="10"
   inkscape:pageopacity="0"
   inkscape:pageshadow="2"
   inkscape:window-width="708"
   inkscape:window-height="480"
   id="namedview13"
   showgrid="false"
   inkscape:zoom="4.72"
   inkscape:cx="-0.31779661"
   inkscape:cy="24.86943"
   inkscape:window-x="0"
   inkscape:window-y="0"
   inkscape:window-maximized="0"
   inkscape:current-layer="Layer_1" />
<g
   id="g3"
   style="fill:#999999;fill-opacity:1"
   transform="matrix(1.5437003,0,0,1.5437003,-13.593279,-13.594329)">
	<path
   d="m 40.556,22.29 c -0.249,-0.57 -0.78,-0.948 -1.389,-0.984 -0.394,-0.028 -0.788,0.071 -1.139,0.24 -0.194,-0.158 -0.42,-0.288 -0.676,-0.372 -0.609,-0.202 -1.937,-0.025 -2.522,0.593 -1.22,-1.665 -3.035,-3.005 -5.196,-3.876 -0.401,0.654 -1.007,1.163 -1.733,1.439 0.144,0.116 0.218,0.198 0.229,0.21 0.181,0.208 0.159,0.524 -0.049,0.706 -0.095,0.082 -0.211,0.123 -0.328,0.123 -0.14,0 -0.278,-0.058 -0.377,-0.172 -0.027,-0.03 -0.804,-0.849 -2.837,-0.849 -2.033,0 -2.81,0.819 -2.842,0.854 -0.185,0.201 -0.5,0.219 -0.704,0.037 -0.204,-0.182 -0.226,-0.492 -0.047,-0.698 0.04,-0.045 0.948,-1.031 3.114,-1.166 -0.38,-0.431 -0.662,-0.95 -0.793,-1.529 -1.422,0.071 -2.784,0.322 -4.038,0.741 -1.217,-1.574 -4.427,-3.027 -6.094,-3.377 0,3.45 1.513,4.218 1.458,6.079 -1.272,1.18 -2.201,2.598 -2.675,4.162 l -1.793,-0.264 c -0.544,-0.08 -0.901,0.296 -0.793,0.835 l 0.717,3.585 c 0.108,0.539 0.646,0.98 1.196,0.98 h 0.805 c 0.638,1.77 1.87,3.333 3.512,4.551 v 5.384 c 2.726,0 4.936,0.078 4.936,-2.062 v -1.063 c 1.127,0.267 2.318,0.416 3.554,0.416 1.609,0 3.142,-0.252 4.554,-0.695 v 1.341 c 0,2.14 2.21,2.062 4.936,2.062 V 33.31 c 1.872,-1.749 3.01,-4.015 3.01,-6.498 0,-1.667 -0.517,-3.235 -1.419,-4.618 0.335,-0.518 1.574,-0.709 2.063,-0.546 0.135,0.045 0.259,0.105 0.371,0.179 -0.448,0.336 -0.771,0.787 -0.849,1.208 -0.055,0.294 -0.07,1.015 0.979,1.35 0.132,0.042 0.258,0.063 0.375,0.063 0.379,0 0.67,-0.213 0.797,-0.603 0.166,-0.51 0.005,-1.305 -0.467,-1.915 0.236,-0.091 0.488,-0.139 0.735,-0.125 0.501,0.03 0.825,0.374 0.96,0.685 0.152,0.351 0.115,0.717 -0.102,0.979 -0.088,0.106 -0.073,0.264 0.034,0.352 0.105,0.088 0.264,0.073 0.352,-0.034 0.334,-0.405 0.401,-0.978 0.175,-1.497 z m -24.171,2.396 c -0.529,0 -0.958,-0.429 -0.958,-0.958 0,-0.529 0.429,-0.958 0.958,-0.958 0.529,0 0.958,0.429 0.958,0.958 0,0.529 -0.429,0.958 -0.958,0.958 z m 22.009,-0.998 c -0.05,0.152 -0.16,0.342 -0.544,0.218 -0.492,-0.157 -0.707,-0.419 -0.64,-0.782 0.062,-0.331 0.352,-0.696 0.741,-0.959 0.417,0.494 0.559,1.166 0.443,1.523 z"
   id="path5"
   style="fill:#999999;fill-opacity:1"
   inkscape:connector-curvature="0" />
	<circle
   cx="26.667"
   cy="16.073"
   r="2.4920001"
   id="circle7"
   style="fill:#999999;fill-opacity:1"
   d="m 29.159,16.073 c 0,1.376294 -1.115707,2.492 -2.492,2.492 -1.376294,0 -2.492,-1.115706 -2.492,-2.492 0,-1.376294 1.115706,-2.492 2.492,-2.492 1.376293,0 2.492,1.115706 2.492,2.492 z"
   sodipodi:cx="26.667"
   sodipodi:cy="16.073"
   sodipodi:rx="2.4920001"
   sodipodi:ry="2.4920001" />
	<circle
   cx="23.174999"
   cy="12.344"
   r="1.864"
   id="circle9"
   style="fill:#999999;fill-opacity:1"
   d="m 25.038999,12.344 c 0,1.029459 -0.834541,1.864 -1.864,1.864 -1.029459,0 -1.864,-0.834541 -1.864,-1.864 0,-1.029459 0.834541,-1.864 1.864,-1.864 1.029459,0 1.864,0.834541 1.864,1.864 z"
   sodipodi:cx="23.174999"
   sodipodi:cy="12.344"
   sodipodi:rx="1.864"
   sodipodi:ry="1.864" />
	<circle
   cx="30.238001"
   cy="13.406"
   r="1.301"
   id="circle11"
   style="fill:#999999;fill-opacity:1"
   d="m 31.539001,13.406 c 0,0.718523 -0.582478,1.301 -1.301,1.301 -0.718523,0 -1.301,-0.582477 -1.301,-1.301 0,-0.718522 0.582477,-1.301 1.301,-1.301 0.718522,0 1.301,0.582478 1.301,1.301 z"
   sodipodi:cx="30.238001"
   sodipodi:cy="13.406"
   sodipodi:rx="1.301"
   sodipodi:ry="1.301" />
</g>
</svg>