<?xml version="1.0" encoding="UTF-8" standalone="no"?>
<svg
   xmlns:dc="http://purl.org/dc/elements/1.1/"
   xmlns:cc="http://creativecommons.org/ns#"
   xmlns:rdf="http://www.w3.org/1999/02/22-rdf-syntax-ns#"
   xmlns:svg="http://www.w3.org/2000/svg"
   xmlns="http://www.w3.org/2000/svg"
   xmlns:sodipodi="http://sodipodi.sourceforge.net/DTD/sodipodi-0.dtd"
   xmlns:inkscape="http://www.inkscape.org/namespaces/inkscape"
   height="78px"
   id="Layer_1"
   style="enable-background:new 0 0 78 78;"
   version="1.1"
   viewBox="0 0 78 78"
   width="78px"
   xml:space="preserve"
   inkscape:version="0.48.5 r10040"
   sodipodi:docname="cash-out.svg"><metadata
     id="metadata17"><rdf:RDF><cc:Work
         rdf:about=""><dc:format>image/svg+xml</dc:format><dc:type
           rdf:resource="http://purl.org/dc/dcmitype/StillImage" /></cc:Work></rdf:RDF></metadata><defs
     id="defs15" /><sodipodi:namedview
     pagecolor="#ffffff"
     bordercolor="#666666"
     borderopacity="1"
     objecttolerance="10"
     gridtolerance="10"
     guidetolerance="10"
     inkscape:pageopacity="0"
     inkscape:pageshadow="2"
     inkscape:window-width="708"
     inkscape:window-height="480"
     id="namedview13"
     showgrid="false"
     inkscape:zoom="3.025641"
     inkscape:cx="39"
     inkscape:cy="39"
     inkscape:window-x="0"
     inkscape:window-y="0"
     inkscape:window-maximized="0"
     inkscape:current-layer="Layer_1" /><g
     id="g3"
     style="fill:#999999;fill-opacity:1"><path
       d="M69,12H9c-4.963,0-9,4.038-9,9v36c0,4.962,4.037,9,9,9h60c4.963,0,9-4.038,9-9V21   C78,16.038,73.963,12,69,12z M72,57c0,1.654-1.346,3-3,3H9c-1.654,0-3-1.346-3-3V21c0-1.654,1.346-3,3-3h60c1.654,0,3,1.346,3,3V57   z"
       style="fill:#999999;fill-opacity:1"
       id="path5" /><path
       d="M63,27H15c-1.657,0-3,1.343-3,3s1.343,3,3,3h48c1.657,0,3-1.343,3-3S64.657,27,63,27z"
       style="fill:#999999;fill-opacity:1"
       id="path7" /><path
       d="M63,45H48c-1.657,0-3,1.343-3,3s1.343,3,3,3h15c1.657,0,3-1.343,3-3S64.657,45,63,45z"
       style="fill:#999999;fill-opacity:1"
       id="path9" /><path
       d="M31,39c-1.961,0-3.771,0.637-5.252,1.706C24.27,39.637,22.46,39,20.5,39c-4.963,0-9,4.038-9,9.001   s4.037,9.001,9,9.001c1.96,0,3.77-0.637,5.248-1.706c1.48,1.069,3.291,1.706,5.252,1.706c4.963,0,9-4.038,9-9.001S35.963,39,31,39z    M31,54.002c-3.309,0-6-2.692-6-6.001S27.691,42,31,42s6,2.692,6,6.001S34.309,54.002,31,54.002z"
       style="fill:#999999;fill-opacity:1"
       id="path11" /></g></svg>