<?xml version="1.0" encoding="UTF-8" standalone="no"?>
<!-- Generator: Adobe Illustrator 17.0.0, SVG Export Plug-In . SVG Version: 6.00 Build 0)  -->

<svg
   xmlns:dc="http://purl.org/dc/elements/1.1/"
   xmlns:cc="http://creativecommons.org/ns#"
   xmlns:rdf="http://www.w3.org/1999/02/22-rdf-syntax-ns#"
   xmlns:svg="http://www.w3.org/2000/svg"
   xmlns="http://www.w3.org/2000/svg"
   xmlns:sodipodi="http://sodipodi.sourceforge.net/DTD/sodipodi-0.dtd"
   xmlns:inkscape="http://www.inkscape.org/namespaces/inkscape"
   version="1.1"
   id="Layer_1"
   x="0px"
   y="0px"
   width="800"
   height="800"
   viewBox="0 0 800 800"
   enable-background="new 0 0 792 612"
   xml:space="preserve"
   inkscape:version="0.48.5 r10040"
   sodipodi:docname="logo.svg"><metadata
   id="metadata13"><rdf:RDF><cc:Work
       rdf:about=""><dc:format>image/svg+xml</dc:format><dc:type
         rdf:resource="http://purl.org/dc/dcmitype/StillImage" /></cc:Work></rdf:RDF></metadata><defs
   id="defs11" /><sodipodi:namedview
   pagecolor="#ffffff"
   bordercolor="#666666"
   borderopacity="1"
   objecttolerance="10"
   gridtolerance="10"
   guidetolerance="10"
   inkscape:pageopacity="0"
   inkscape:pageshadow="2"
   inkscape:window-width="1536"
   inkscape:window-height="803"
   id="namedview9"
   showgrid="false"
   inkscape:zoom="0.72222222"
   inkscape:cx="270.06091"
   inkscape:cy="401.70903"
   inkscape:window-x="-8"
   inkscape:window-y="-8"
   inkscape:window-maximized="1"
   inkscape:current-layer="Layer_1" />


<path
   d="m 230.57857,203.62286 c 0,94.28887 76.71973,171.0086 171.00723,171.0086 94.28749,0 171.00722,-76.71973 171.00722,-171.0086 0,-94.28888 -76.71835,-171.021001 -171.00722,-171.021001 -94.28888,0 -171.00723,76.718351 -171.00723,171.021001 z M 533.59545,173.8699 c -14.0005,-8.16616 -10.49658,1.1721 -10.49658,1.1721 0,0 0,0 9.33825,8.16616 9.33826,8.16615 16.33232,11.66869 12.8284,23.10186 -3.50391,11.43179 -9.33826,1.3966 -20.99455,10.73349 -11.66869,9.33826 14.0005,11.66869 15.15883,25.66919 1.15833,14.00051 -14.0005,6.99406 -20.99456,20.99456 -6.99405,14.0005 -1.1721,29.15933 -4.66224,42.00151 -3.50391,12.8284 -32.66325,30.33144 -43.25212,36.16716 -10.58887,5.83435 -3.41163,-12.8284 0,-25.6692 3.41164,-12.8284 -8.07387,-26.8289 -8.07387,-50.16766 0,-23.33876 -6.99406,-16.33094 -28.00101,-16.33094 -20.99456,0 -30.33144,-11.66869 -32.66325,-33.83535 -2.33181,-22.16666 17.50442,-44.33194 26.8289,-51.32599 9.32449,-6.99406 22.16666,-14.00051 34.99506,-6.99406 12.8284,6.99406 17.50442,14.00051 31.49115,14.00051 13.98673,0 14.0005,-4.66225 22.16666,-10.49659 8.16616,-5.83435 -11.66869,-12.8284 -23.32499,-11.61636 -11.66869,1.21205 -9.33826,-7.04639 -24.49709,-12.88074 -15.15884,-5.83434 -20.99456,5.83435 -25.6692,8.16616 -4.66224,2.33181 -20.99455,9.33826 -22.62668,0 -1.63351,-9.33826 8.62618,-10.49659 19.12415,-10.49659 10.49796,0 1.1721,-8.16616 -2.33181,-14.0005 -3.50392,-5.83435 -10.49659,-5.83435 -15.55413,-10.39191 -5.05753,-4.55757 6.21724,-12.946852 17.88594,-10.155022 11.66869,2.791842 6.99405,11.208672 19.83485,10.048962 12.82839,-1.1721 0,-12.828402 0,-24.129347 0,-11.300947 14.0005,-10.865712 23.32498,-15.369563 0.57986,-0.276842 1.18588,-0.144619 1.77813,-0.210731 4.33306,2.725725 8.52151,5.637389 12.55156,8.758406 5.34677,6.821888 10.5627,15.804803 14.82965,20.914673 2.06736,2.476432 4.83303,2.067362 7.77086,0.342952 20.50699,23.48338 34.21687,52.99807 37.94529,85.58281 -13.46334,3.84411 -13.30495,-5.09885 -24.71058,-11.74995 z M 401.5858,45.771836 c 6.00651,0 11.90696,0.407688 17.74131,1.067426 -2.17342,4.728355 -4.71458,8.047707 -4.71458,8.047707 0,0 -4.66224,15.158832 -15.15883,16.332313 -10.49659,1.172103 -23.32499,0 -29.15934,9.338259 -5.83434,9.33826 -4.66224,25.669199 -14.0005,16.330937 -9.33826,-9.338261 -1.1721,-10.04896 -10.49659,-19.59795 -9.33826,-9.561386 -11.66869,-9.561386 -16.33231,-9.561386 -0.93521,0 -1.94892,-1.132161 -2.91029,-2.92406 22.30852,-12.131474 47.87304,-19.033246 75.03113,-19.033246 z m -95.92239,32.781698 c 1.23822,1.198272 3.37169,2.542541 6.95411,4.043825 14.00051,5.834346 17.22758,17.384589 10.77344,16.924559 -6.45415,-0.44763 -32.64948,3.121022 -8.54768,10.115072 24.1018,6.99406 22.11294,15.19878 11.39323,18.70269 -10.7211,3.50392 -8.42923,-11.64252 -10.76104,3.51631 -2.33181,15.15883 -4.68841,14.0129 -12.27471,16.34471 -7.58631,2.33181 -21.58681,14.0005 -21.58681,22.16666 0,8.16616 -4.67602,12.73612 4.66224,19.73017 9.33826,6.99406 -2.92406,19.79491 -7.33563,10.47042 -5.29443,-11.19489 -9.00907,-17.37219 -14.82965,-18.53052 -5.83434,-1.1721 -13.35454,8.16616 0,17.50442 13.35454,9.33826 14.00051,15.15883 14.00051,22.16665 0,7.00783 9.66744,6.99406 17.08295,5.83435 7.41551,-1.1721 22.64046,18.66275 27.86878,26.8289 5.21593,8.16616 14.55419,16.33094 27.38121,19.83485 12.8284,3.50392 17.50442,11.6687 10.49659,17.50442 -6.99405,5.83434 -8.16616,19.83485 -16.33093,23.32499 -8.16616,3.50391 -9.33826,14.0005 -14.00051,18.66274 -2.08113,2.08114 -4.05622,4.75453 -5.90046,7.66481 -7.84937,-4.39917 -15.30482,-9.43054 -22.25894,-15.06792 -1.13216,-11.32712 -2.48882,-24.35248 -9.17986,-29.92376 -6.99406,-5.83434 -11.66869,-14.0005 -14.00051,-23.32498 -2.33181,-9.33826 3.50392,-23.32499 -1.1721,-32.66325 -4.66224,-9.33826 -4.66224,-0.57986 -14.0005,-13.71127 -9.33826,-13.11764 -9.33826,-13.11764 -15.15883,-23.628 -1.87041,-3.37169 -3.31936,-8.07387 -4.50385,-13.23609 3.96394,-45.28229 27.10436,-85.0181 61.22895,-111.254756 z"
   id="path3"
   style="fill:#4486f7;fill-opacity:1"
   inkscape:connector-curvature="0" /><path
   d="m 221.7513,278.90741 c 0,0 -7.25024,-21.79065 -33.05304,-13.28567 -23.46272,7.73505 -13.83246,33.94554 -13.83246,33.94554 l 24.69543,74.90992 c 0,0 8.70193,22.70795 0.0757,27.12503 -12.91655,6.45276 -24.49985,-18.07877 -24.49985,-18.07877 l -47.76281,-86.53591 27.11401,-144.64524 c 0,0 8.64547,-29.71852 -11.57503,-37.12715 -14.37238,-4.87849 -24.95712,-0.15289 -33.74721,24.22025 -9.03387,25.82345 -54.368502,152.38993 -54.368502,152.38993 v 156.27123 l 130.567602,175.09925 4.01215,123.45372 H 336.77717 V 530.75945 L 221.7513,278.90741 z"
   id="path5"
   style="fill:#666666"
   inkscape:connector-curvature="0" /><path
   d="M 465.24022,530.75945 V 746.64816 H 612.6401 l 4.01215,-123.45372 130.5676,-175.09925 V 291.82396 c 0,0 -45.33326,-126.56647 -54.3685,-152.38993 -8.79009,-24.37313 -19.3762,-29.09873 -33.74721,-24.22025 -20.2205,7.40863 -11.57503,37.12716 -11.57503,37.12716 l 27.11401,144.64523 -47.76286,86.53592 c 0,0 -11.5833,24.5329 -24.49985,18.07876 -8.62618,-4.41708 0.0758,-27.12503 0.0758,-27.12503 l 24.69542,-74.90992 c 0,0 9.63026,-26.21048 -13.83247,-33.94554 -25.80279,-8.50635 -33.05303,13.28567 -33.05303,13.28567 L 465.24022,530.75945 z"
   id="path7"
   style="fill:#666666"
   inkscape:connector-curvature="0" />
</svg>