<?xml version="1.0" encoding="UTF-8" standalone="no"?>
<svg
   xmlns:dc="http://purl.org/dc/elements/1.1/"
   xmlns:cc="http://creativecommons.org/ns#"
   xmlns:rdf="http://www.w3.org/1999/02/22-rdf-syntax-ns#"
   xmlns:svg="http://www.w3.org/2000/svg"
   xmlns="http://www.w3.org/2000/svg"
   xmlns:sodipodi="http://sodipodi.sourceforge.net/DTD/sodipodi-0.dtd"
   xmlns:inkscape="http://www.inkscape.org/namespaces/inkscape"
   height="18"
   version="1.1"
   viewBox="0 0 18 18"
   width="18"
   id="svg2"
   inkscape:version="0.48.5 r10040"
   sodipodi:docname="more.svg">
  <metadata
     id="metadata16">
    <rdf:RDF>
      <cc:Work
         rdf:about="">
        <dc:format>image/svg+xml</dc:format>
        <dc:type
           rdf:resource="http://purl.org/dc/dcmitype/StillImage" />
      </cc:Work>
    </rdf:RDF>
  </metadata>
  <sodipodi:namedview
     pagecolor="#ffffff"
     bordercolor="#666666"
     borderopacity="1"
     objecttolerance="10"
     gridtolerance="10"
     guidetolerance="10"
     inkscape:pageopacity="0"
     inkscape:pageshadow="2"
     inkscape:window-width="1536"
     inkscape:window-height="803"
     id="namedview14"
     showgrid="false"
     inkscape:zoom="14.75"
     inkscape:cx="-8.5762712"
     inkscape:cy="8"
     inkscape:window-x="-8"
     inkscape:window-y="-8"
     inkscape:window-maximized="1"
     inkscape:current-layer="svg2" />
  <title
     id="title4" />
  <desc
     id="desc6" />
  <defs
     id="defs8" />
  <g
     id="Page-1"
     style="fill:#666666;stroke:none"
     transform="translate(7,1)">
    <g
       id="Core"
       transform="translate(-178,-340)"
       style="fill:#666666">
      <g
         id="more-vert"
         transform="translate(178,340)"
         style="fill:#666666">
        <path
           d="M 2,4 C 3.1,4 4,3.1 4,2 4,0.9 3.1,0 2,0 0.9,0 0,0.9 0,2 0,3.1 0.9,4 2,4 L 2,4 z M 2,6 C 0.9,6 0,6.9 0,8 0,9.1 0.9,10 2,10 3.1,10 4,9.1 4,8 4,6.9 3.1,6 2,6 l 0,0 z m 0,6 c -1.1,0 -2,0.9 -2,2 0,1.1 0.9,2 2,2 1.1,0 2,-0.9 2,-2 0,-1.1 -0.9,-2 -2,-2 l 0,0 z"
           id="Shape"
           inkscape:connector-curvature="0"
           style="fill:#666666" />
      </g>
    </g>
  </g>
</svg>
