<?xml version="1.0" encoding="UTF-8" standalone="no"?>
<!-- Generator: Adobe Illustrator 16.0.4, SVG Export Plug-In . SVG Version: 6.00 Build 0)  -->

<svg
   xmlns:dc="http://purl.org/dc/elements/1.1/"
   xmlns:cc="http://creativecommons.org/ns#"
   xmlns:rdf="http://www.w3.org/1999/02/22-rdf-syntax-ns#"
   xmlns:svg="http://www.w3.org/2000/svg"
   xmlns="http://www.w3.org/2000/svg"
   xmlns:sodipodi="http://sodipodi.sourceforge.net/DTD/sodipodi-0.dtd"
   xmlns:inkscape="http://www.inkscape.org/namespaces/inkscape"
   version="1.1"
   id="Capa_1"
   x="0px"
   y="0px"
   width="64px"
   height="64px"
   viewBox="0 0 64 64"
   enable-background="new 0 0 64 64"
   xml:space="preserve"
   inkscape:version="0.48.5 r10040"
   sodipodi:docname="need.svg"><metadata
   id="metadata9"><rdf:RDF><cc:Work
       rdf:about=""><dc:format>image/svg+xml</dc:format><dc:type
         rdf:resource="http://purl.org/dc/dcmitype/StillImage" /></cc:Work></rdf:RDF></metadata><defs
   id="defs7" /><sodipodi:namedview
   pagecolor="#ffffff"
   bordercolor="#666666"
   borderopacity="1"
   objecttolerance="10"
   gridtolerance="10"
   guidetolerance="10"
   inkscape:pageopacity="0"
   inkscape:pageshadow="2"
   inkscape:window-width="640"
   inkscape:window-height="480"
   id="namedview5"
   showgrid="false"
   inkscape:zoom="3.6875"
   inkscape:cx="-0.40677966"
   inkscape:cy="32"
   inkscape:window-x="0"
   inkscape:window-y="0"
   inkscape:window-maximized="0"
   inkscape:current-layer="Capa_1" />
<path
   d="m 51.75,10.6955 h -39.5 c -1.657,0 -3,1.343 -3,3 v 36.609 c 0,1.658 1.343,3 3,3 h 39.5 c 1.656,0 3,-1.342 3,-3 v -36.609 c 0,-1.657 -1.344,-3 -3,-3 z m -4.864,24.81 c 0,0.554 -0.446,1 -1,1 h -8.379 c -0.554,0 -1,0.447 -1,1 v 8.379 c 0,0.554 -0.447,1 -1,1 h -7.014 c -0.553,0 -1,-0.446 -1,-1 v -8.379 c 0,-0.553 -0.447,-1 -1,-1 h -8.379 c -0.553,0 -1,-0.446 -1,-1 v -7.012 c 0,-0.553 0.447,-1 1,-1 h 8.379 c 0.553,0 1,-0.447 1,-1 v -8.378 c 0,-0.553 0.447,-1 1,-1 h 7.014 c 0.553,0 1,0.447 1,1 v 8.378 c 0,0.553 0.446,1 1,1 h 8.379 c 0.554,0 1,0.447 1,1 v 7.012 z"
   id="path3"
   style="fill:#ff5555"
   inkscape:connector-curvature="0" />
</svg>