<?xml version="1.0" encoding="UTF-8" standalone="no"?>
<!-- Generator: Adobe Illustrator 17.1.0, SVG Export Plug-In . SVG Version: 6.00 Build 0)  -->

<svg
   xmlns:dc="http://purl.org/dc/elements/1.1/"
   xmlns:cc="http://creativecommons.org/ns#"
   xmlns:rdf="http://www.w3.org/1999/02/22-rdf-syntax-ns#"
   xmlns:svg="http://www.w3.org/2000/svg"
   xmlns="http://www.w3.org/2000/svg"
   xmlns:sodipodi="http://sodipodi.sourceforge.net/DTD/sodipodi-0.dtd"
   xmlns:inkscape="http://www.inkscape.org/namespaces/inkscape"
   version="1.1"
   id="Layer_1"
   x="0px"
   y="0px"
   viewBox="0 0 100 100"
   xml:space="preserve"
   inkscape:version="0.48.5 r10040"
   width="100%"
   height="100%"
   sodipodi:docname="prepare.svg"><metadata
   id="metadata9"><rdf:RDF><cc:Work
       rdf:about=""><dc:format>image/svg+xml</dc:format><dc:type
         rdf:resource="http://purl.org/dc/dcmitype/StillImage" /></cc:Work></rdf:RDF></metadata><defs
   id="defs7" /><sodipodi:namedview
   pagecolor="#ffffff"
   bordercolor="#666666"
   borderopacity="1"
   objecttolerance="10"
   gridtolerance="10"
   guidetolerance="10"
   inkscape:pageopacity="0"
   inkscape:pageshadow="2"
   inkscape:window-width="1536"
   inkscape:window-height="803"
   id="namedview5"
   showgrid="false"
   inkscape:zoom="2.36"
   inkscape:cx="96.950314"
   inkscape:cy="40.522232"
   inkscape:window-x="-8"
   inkscape:window-y="-8"
   inkscape:window-maximized="1"
   inkscape:current-layer="Layer_1" />
<path
   d="M 88.67239,25.072993 79.850704,14.005537 C 79.017417,12.96002 77.753314,12.351068 76.416283,12.351068 H 30.821534 c -1.33683,0 -2.600932,0.608952 -3.43432,1.654368 l -8.821586,11.067557 c -0.921548,1.156171 -1.675652,3.311965 -1.675652,4.939401 v 8.10682 c 0.700744,-1.102307 1.724877,-1.929743 2.95297,-2.352994 0.06859,-0.92639 0.349514,-1.82494 0.829958,-2.643096 0.832076,-1.417526 2.16699,-2.425419 3.758214,-2.839289 0.57042,-0.149086 1.092624,-0.216568 1.614828,-0.216568 2.103744,0 4.010187,1.07013 5.126414,2.75133 0.332367,-0.0579 0.667961,-0.08796 1.004665,-0.08796 1.03301,0 2.009129,0.283949 2.859463,0.773471 l 4.886344,-1.270962 c 0.612281,-0.159778 1.241609,-0.240172 1.872147,-0.240172 3.379649,0 6.333727,2.286017 7.18507,5.559551 l 9.576193,36.805643 c 0.49971,1.920363 0.220906,3.920111 -0.782751,5.63137 -1.004665,1.71126 -2.616265,2.928256 -4.536627,3.427966 l -4.273761,1.111688 h 35.89509 c 3.03195,0 5.489849,-2.457899 5.489849,-5.489849 l -1.01e-4,-49.175835 c 0,-1.478552 -0.754003,-3.634346 -1.675551,-4.790517 z m -67.223897,-0.09371 2.921397,-3.665212 h 19.932112 l 1.966863,-3.233992 H 26.947622 l 2.156803,-2.705939 c 0.419013,-0.525734 1.044912,-0.827234 1.71721,-0.827234 h 45.594749 c 0.672298,0 1.298196,0.3015 1.71721,0.827234 l 2.156802,2.705939 H 60.624783 l 1.09797,3.233992 h 21.145275 l 2.921397,3.665212 H 21.448493 z m 0.891086,13.523035 -1.232228,0.320564 c -1.31242,0.341445 -2.099609,1.682209 -1.758164,2.994629 l 0.01251,0.04801 c 0.341546,1.31252 1.682209,2.099609 2.994729,1.758164 l 10.449927,-2.718546 c 1.31252,-0.341445 2.099609,-1.682108 1.758164,-2.99473 l -0.01251,-0.04801 C 34.210562,36.54998 32.869798,35.762791 31.557379,36.104235 L 30.325151,36.4248 c -0.658378,0.171278 -1.33108,-0.223628 -1.502357,-0.882007 l -0.01049,-0.04004 c -0.39773,-1.528988 -1.959601,-2.445997 -3.488689,-2.048266 l -0.06395,0.01664 c -1.528987,0.397831 -2.445996,1.959702 -2.048266,3.48869 l 0.01049,0.04005 c 0.171076,0.658479 -0.22383,1.331181 -0.882309,1.502459 z m 3.36825,-3.439062 c 0.662817,-0.172387 1.340058,0.225142 1.512445,0.887959 0.172387,0.662917 -0.225142,1.340057 -0.888059,1.512444 -0.662817,0.172387 -1.339957,-0.225142 -1.512445,-0.887958 -0.172387,-0.662918 0.225243,-1.340058 0.888059,-1.512445 z m 15.400528,37.853986 c 0.114992,0.441911 -0.150095,0.893405 -0.591905,1.008296 L 25.313629,77.88045 c -0.441911,0.114991 -0.893405,-0.150095 -1.008296,-0.592006 l -0.208196,-0.800101 c -0.114991,-0.442013 0.150095,-0.893406 0.592006,-1.008297 l 15.202722,-3.95491 c 0.442012,-0.114992 0.893405,0.150094 1.008296,0.591905 l 0.208196,0.800202 z m 1.854192,-15.859587 0.208196,0.800101 c 0.114891,0.441911 -0.150095,0.893405 -0.592006,1.008296 l -20.80373,5.412078 c -0.441911,0.114993 -0.893304,-0.150093 -1.008296,-0.591904 l -0.208196,-0.800201 c -0.114891,-0.442013 0.150095,-0.893406 0.592006,-1.008297 l 20.80373,-5.412078 c 0.441911,-0.114992 0.893304,0.149994 1.008296,0.592006 z M 40.70528,51.664742 19.901551,57.07682 c -0.441912,0.114891 -0.893305,-0.150094 -1.008297,-0.592006 l -0.208195,-0.800201 c -0.114891,-0.441912 0.150094,-0.893305 0.592005,-1.008297 l 20.80373,-5.411977 c 0.442013,-0.114992 0.893305,0.150094 1.008297,0.591905 l 0.208195,0.800201 c 0.114992,0.441912 -0.149993,0.893305 -0.592006,1.008297 z M 40.243296,66.307937 23.440272,70.679239 C 22.998361,70.79413 22.546867,70.529145 22.431976,70.087233 L 22.22378,69.287031 c -0.114992,-0.441911 0.150094,-0.893304 0.592006,-1.008296 l 16.803024,-4.3712 c 0.441911,-0.114992 0.893304,0.150095 1.008296,0.592006 l 0.208196,0.800202 c 0.114891,0.44181 -0.150095,0.893304 -0.592006,1.008195 z m 15.124446,8.879889 -9.575084,-36.806652 c -0.574757,-2.209457 -2.832026,-3.534686 -5.041482,-2.959929 l -4.879283,1.269348 c 0.115294,0.238255 0.211121,0.489925 0.280318,0.755516 0.582927,2.241028 -0.736856,4.489017 -2.92987,5.059538 l -10.296304,2.678501 c -2.101828,0.546817 -4.364847,-0.535417 -5.070432,-2.589433 -0.132846,-0.386836 -0.204766,-0.77569 -0.225344,-1.158694 l -4.884226,1.27066 c -2.209456,0.574757 -3.5346863,2.831925 -2.9599294,5.041482 l 9.5751854,36.806652 c 0.574858,2.209557 2.832026,3.534787 5.041482,2.959929 l 28.00504,-7.285436 c 2.209557,-0.574858 3.534686,-2.831925 2.959929,-5.041482 z m -32.005745,8.326112 -8.326213,-32.005645 28.00504,-7.285436 8.326213,32.005746 -28.00504,7.285335 z"
   id="path3"
   style="fill:#666666"
   inkscape:connector-curvature="0" />
</svg>