<?xml version="1.0" encoding="UTF-8" standalone="no"?>
<!-- Generator: Adobe Illustrator 18.0.0, SVG Export Plug-In . SVG Version: 6.00 Build 0)  -->

<svg
   xmlns:dc="http://purl.org/dc/elements/1.1/"
   xmlns:cc="http://creativecommons.org/ns#"
   xmlns:rdf="http://www.w3.org/1999/02/22-rdf-syntax-ns#"
   xmlns:svg="http://www.w3.org/2000/svg"
   xmlns="http://www.w3.org/2000/svg"
   xmlns:sodipodi="http://sodipodi.sourceforge.net/DTD/sodipodi-0.dtd"
   xmlns:inkscape="http://www.inkscape.org/namespaces/inkscape"
   version="1.1"
   id="Artwork"
   x="0px"
   y="0px"
   viewBox="0 0 25 25"
   enable-background="new 0 0 800 800"
   xml:space="preserve"
   inkscape:version="0.48.5 r10040"
   width="100%"
   height="100%"
   sodipodi:docname="project-indication-notifications.svg"><metadata
   id="metadata13"><rdf:RDF><cc:Work
       rdf:about=""><dc:format>image/svg+xml</dc:format><dc:type
         rdf:resource="http://purl.org/dc/dcmitype/StillImage" /></cc:Work></rdf:RDF></metadata><defs
   id="defs11" /><sodipodi:namedview
   pagecolor="#ffffff"
   bordercolor="#666666"
   borderopacity="1"
   objecttolerance="10"
   gridtolerance="10"
   guidetolerance="10"
   inkscape:pageopacity="0"
   inkscape:pageshadow="2"
   inkscape:window-width="1536"
   inkscape:window-height="803"
   id="namedview9"
   showgrid="false"
   inkscape:zoom="6.675088"
   inkscape:cx="3.8165357"
   inkscape:cy="13.038082"
   inkscape:window-x="-8"
   inkscape:window-y="-8"
   inkscape:window-maximized="1"
   inkscape:current-layer="Artwork"
   showborder="true"
   fit-margin-top="0"
   fit-margin-left="0"
   fit-margin-right="0"
   fit-margin-bottom="0"
   width="20px" />
<g
   id="g3"
   style="fill:#ff5555"
   transform="matrix(0.03452403,0,0,0.03452403,-1.3079646,-0.89532364)">
	<path
   d="M 655.7,508 H 611.6 V 297.4 C 611.6,194 536.8,107.9 438,90.1 c 0.2,-1.1 0.2,-2.2 0.2,-3.4 0,-20.9 -17,-38 -38.1,-38 -21.1,0 -38.1,17 -38.1,38 0,1.1 0,2.2 0.2,3.4 C 263.5,107.9 188.5,194 188.5,297.4 V 508 h -44.1 c -7.8,0 -14.1,6.3 -14.1,14.1 v 75 c 0,7.8 6.3,14.1 14.1,14.1 h 511.1 c 7.8,0 14.1,-6.3 14.1,-14.1 v -75 c 0.2,-7.8 -6.2,-14.1 -13.9,-14.1 z"
   id="path5"
   style="fill:#ff5555"
   inkscape:connector-curvature="0" />
	<path
   d="m 397.7,727.3 c 45.3,0 82,-41.4 82,-92.7 l -164,0 c 0,51.3 36.7,92.7 82,92.7 z"
   id="path7"
   style="fill:#ff5555"
   inkscape:connector-curvature="0"
   sodipodi:nodetypes="sccs" />
</g>
</svg>