<?xml version="1.0" encoding="UTF-8" standalone="no"?>
<svg
   xmlns:dc="http://purl.org/dc/elements/1.1/"
   xmlns:cc="http://creativecommons.org/ns#"
   xmlns:rdf="http://www.w3.org/1999/02/22-rdf-syntax-ns#"
   xmlns:svg="http://www.w3.org/2000/svg"
   xmlns="http://www.w3.org/2000/svg"
   xmlns:sodipodi="http://sodipodi.sourceforge.net/DTD/sodipodi-0.dtd"
   xmlns:inkscape="http://www.inkscape.org/namespaces/inkscape"
   height="512px"
   id="Layer_1"
   style="enable-background:new 0 0 512 512;"
   version="1.1"
   viewBox="0 0 512 512"
   width="512px"
   xml:space="preserve"
   inkscape:version="0.48.5 r10040"
   sodipodi:docname="project-grey.svg"><metadata
     id="metadata15"><rdf:RDF><cc:Work
         rdf:about=""><dc:format>image/svg+xml</dc:format><dc:type
           rdf:resource="http://purl.org/dc/dcmitype/StillImage" /></cc:Work></rdf:RDF></metadata><defs
     id="defs13" /><sodipodi:namedview
     pagecolor="#ffffff"
     bordercolor="#666666"
     borderopacity="1"
     objecttolerance="10"
     gridtolerance="10"
     guidetolerance="10"
     inkscape:pageopacity="0"
     inkscape:pageshadow="2"
     inkscape:window-width="1536"
     inkscape:window-height="803"
     id="namedview11"
     showgrid="false"
     inkscape:zoom="0.65186406"
     inkscape:cx="-145.1504"
     inkscape:cy="129.24911"
     inkscape:window-x="-8"
     inkscape:window-y="-8"
     inkscape:window-maximized="1"
     inkscape:current-layer="Layer_1" /><g
     id="g3"
     style="fill:#cccccc;fill-opacity:1"
     transform="matrix(0.81724579,0,0,0.81724579,46.760602,148.79292)"><path
       d="M 430.1,192 H 81.9 c -17.7,0 -18.6,9.2 -17.6,20.5 l 13,183 c 0.9,11.2 3.5,20.5 21.1,20.5 h 316.2 c 18,0 20.1,-9.2 21.1,-20.5 l 12.1,-185.3 c 0.9,-11.2 0,-18.2 -17.7,-18.2 z"
       id="path5"
       style="fill:#cccccc;fill-opacity:1"
       inkscape:connector-curvature="0" /><g
       id="g7"
       style="fill:#cccccc;fill-opacity:1"><path
         d="m 426.2,143.3 c -0.5,-12.4 -4.5,-15.3 -15.1,-15.3 0,0 -121.4,0 -143.2,0 -21.8,0 -24.4,0.3 -40.9,-17.4 C 213.3,95.8 218.7,96 190.4,96 c -22.6,0 -75.3,0 -75.3,0 -17.4,0 -23.6,-1.5 -25.2,16.6 -1.5,16.7 -5,57.2 -5.5,63.4 h 343.4 l -1.6,-32.7 z"
         id="path9"
         style="fill:#cccccc;fill-opacity:1"
         inkscape:connector-curvature="0" /></g></g><path
     id="path3754"
     d="m 301.3725,23.232827 h -90.74501 c -3.80669,0 -6.89201,3.085325 -6.89201,6.892023 v 84.10339 c 0,3.80899 3.08532,6.89202 6.89201,6.89202 h 90.74501 c 3.80439,0 6.89202,-3.08303 6.89202,-6.89202 V 30.12485 c 0,-3.806698 -3.08763,-6.892023 -6.89202,-6.892023 z m -11.17427,56.997038 c 0,1.27273 -1.02463,2.29734 -2.29734,2.29734 h -19.24944 c -1.27272,0 -2.29733,1.02692 -2.29733,2.29736 v 19.249425 c 0,1.27273 -1.02691,2.29734 -2.29733,2.29734 h -16.11356 c -1.27042,0 -2.29734,-1.02461 -2.29734,-2.29734 V 84.824565 c 0,-1.27044 -1.02691,-2.29736 -2.29734,-2.29736 h -19.24942 c -1.27043,0 -2.29734,-1.02461 -2.29734,-2.29734 v -16.10897 c 0,-1.27041 1.02691,-2.29733 2.29734,-2.29733 h 19.24942 c 1.27043,0 2.29734,-1.02691 2.29734,-2.29735 V 40.279099 c 0,-1.270433 1.02692,-2.297341 2.29734,-2.297341 h 16.11356 c 1.27043,0 2.29733,1.026908 2.29733,2.297341 v 19.247116 c 0,1.27044 1.02463,2.29735 2.29733,2.29735 h 19.24944 c 1.27273,0 2.29734,1.02692 2.29734,2.29733 v 16.10897 z"
     inkscape:connector-curvature="0"
     style="fill:#cccccc;fill-opacity:1" /><g
     id="g3785"
     transform="matrix(1.2362861,0,0,1.2362861,251.08977,381.14741)"
     style="fill:#cccccc;fill-opacity:1"><g
       id="background"
       style="fill:#cccccc;fill-opacity:1"><rect
         id="rect4"
         width="32"
         height="32"
         x="0"
         y="0"
         style="fill:#cccccc;fill-opacity:1" /></g><g
       style="fill:#cccccc;fill-opacity:1"
       id="arrow_x5F_down"><polygon
         style="fill:#cccccc;fill-opacity:1"
         id="polygon7"
         points="30.002,10 2.002,10 16.001,24 "
         transform="matrix(1.9313949,0,0,1.9313949,-27.923131,-195.7025)" /></g></g></svg>