<?xml version="1.0" encoding="UTF-8" standalone="no"?>
<svg
   xmlns:dc="http://purl.org/dc/elements/1.1/"
   xmlns:cc="http://creativecommons.org/ns#"
   xmlns:rdf="http://www.w3.org/1999/02/22-rdf-syntax-ns#"
   xmlns:svg="http://www.w3.org/2000/svg"
   xmlns="http://www.w3.org/2000/svg"
   xmlns:sodipodi="http://sodipodi.sourceforge.net/DTD/sodipodi-0.dtd"
   xmlns:inkscape="http://www.inkscape.org/namespaces/inkscape"
   height="16px"
   version="1.1"
   viewBox="0 0 16 16"
   width="16px"
   id="svg2"
   inkscape:version="0.48.5 r10040"
   sodipodi:docname="upload-photo.svg">
  <metadata
     id="metadata13">
    <rdf:RDF>
      <cc:Work
         rdf:about="">
        <dc:format>image/svg+xml</dc:format>
        <dc:type
           rdf:resource="http://purl.org/dc/dcmitype/StillImage" />
      </cc:Work>
    </rdf:RDF>
  </metadata>
  <sodipodi:namedview
     pagecolor="#ffffff"
     bordercolor="#666666"
     borderopacity="1"
     objecttolerance="10"
     gridtolerance="10"
     guidetolerance="10"
     inkscape:pageopacity="0"
     inkscape:pageshadow="2"
     inkscape:window-width="708"
     inkscape:window-height="480"
     id="namedview11"
     showgrid="false"
     inkscape:zoom="14.75"
     inkscape:cx="8"
     inkscape:cy="8"
     inkscape:window-x="0"
     inkscape:window-y="0"
     inkscape:window-maximized="0"
     inkscape:current-layer="svg2" />
  <title
     id="title4" />
  <defs
     id="defs6" />
  <g
     fill="none"
     fill-rule="evenodd"
     id="Icons with numbers"
     stroke="none"
     stroke-width="1"
     style="fill:#cccccc;fill-opacity:1">
    <g
       fill="#000000"
       id="Group"
       transform="translate(-528.000000, -192.000000)"
       style="fill:#cccccc;fill-opacity:1">
      <path
         d="M528,194 L544,194 L544,206 L528,206 Z M529,195 L529,205 L543,205 L543,195 Z M530.006104,204.026611 C530.006104,204.026611 531.046143,197.003662 532.590332,197.003662 C534.134521,197.003662 534.810913,201.95752 536.053223,201.95752 C537.295532,201.95752 537.201904,200.021851 538.111328,200.021851 C539.020752,200.021851 542.151123,204.026611 542.151123,204.026611 Z M540.5,199 C539.671573,199 539,198.328427 539,197.5 C539,196.671573 539.671573,196 540.5,196 C541.328427,196 542,196.671573 542,197.5 C542,198.328427 541.328427,199 540.5,199 Z M540.5,199"
         id="Oval 236"
         style="fill:#cccccc;fill-opacity:1" />
    </g>
  </g>
</svg>
