<?xml version="1.0" encoding="UTF-8" standalone="no"?>
<!-- Generator: Adobe Illustrator 16.0.0, SVG Export Plug-In . SVG Version: 6.00 Build 0)  -->

<svg
   xmlns:dc="http://purl.org/dc/elements/1.1/"
   xmlns:cc="http://creativecommons.org/ns#"
   xmlns:rdf="http://www.w3.org/1999/02/22-rdf-syntax-ns#"
   xmlns:svg="http://www.w3.org/2000/svg"
   xmlns="http://www.w3.org/2000/svg"
   xmlns:sodipodi="http://sodipodi.sourceforge.net/DTD/sodipodi-0.dtd"
   xmlns:inkscape="http://www.inkscape.org/namespaces/inkscape"
   version="1.1"
   id="Capa_1"
   x="0px"
   y="0px"
   width="35"
   height="35"
   viewBox="0 0 34.999999 34.999999"
   xml:space="preserve"
   inkscape:version="0.48.5 r10040"
   sodipodi:docname="appreciate.svg"><metadata
   id="metadata41"><rdf:RDF><cc:Work
       rdf:about=""><dc:format>image/svg+xml</dc:format><dc:type
         rdf:resource="http://purl.org/dc/dcmitype/StillImage" /></cc:Work></rdf:RDF></metadata><defs
   id="defs39" /><sodipodi:namedview
   pagecolor="#ffffff"
   bordercolor="#666666"
   borderopacity="1"
   objecttolerance="10"
   gridtolerance="10"
   guidetolerance="10"
   inkscape:pageopacity="0"
   inkscape:pageshadow="2"
   inkscape:window-width="1536"
   inkscape:window-height="803"
   id="namedview37"
   showgrid="false"
   inkscape:zoom="7.5464456"
   inkscape:cx="-30.380516"
   inkscape:cy="31.319161"
   inkscape:window-x="-8"
   inkscape:window-y="-8"
   inkscape:window-maximized="1"
   inkscape:current-layer="Capa_1" />

<g
   id="g3018"
   transform="translate(3.9879995,-1.8638609)"
   style="fill:#ff8833;fill-opacity:1"><path
     inkscape:connector-curvature="0"
     id="path3"
     d="m 22.173,22.768999 c 0.067,-0.217 0.113,-0.458 0.115,-0.738 0.018,-1.226 0.551,-2.149 1.603,-2.775 1.052,-0.627 1.279,-1.474 0.682,-2.541 -0.599,-1.068 -0.599,-2.137 0,-3.205 0.598,-1.068 0.37,-1.914 -0.682,-2.541 -1.052,-0.625 -1.585,-1.5509998 -1.603,-2.7739998 -0.017,-1.222 -0.635,-1.844 -1.859,-1.859 -1.223,-0.016 -2.147,-0.55 -2.775,-1.602 -0.625,-1.052 -1.471,-1.28 -2.538,-0.68 -1.07,0.596 -2.139,0.596 -3.205,0 -1.067,-0.6 -1.915,-0.372 -2.543,0.68 -0.624,1.052 -1.55,1.586 -2.775,1.602 -1.223,0.015 -1.844,0.636 -1.86,1.858 -0.017,1.224 -0.55,2.1489998 -1.602,2.7739998 -1.05,0.628 -1.278,1.474 -0.681,2.542 0.6,1.067 0.6,2.136 0,3.205 -0.598,1.067 -0.369,1.914 0.682,2.541 1.052,0.625 1.585,1.549 1.602,2.775 0.004,0.222 0.048,0.402 0.092,0.586 l -4.826,9.482 4.031,-0.451 2.231,3.352 c 0,0 2.925,-6.1 4.128,-8.582 0.443,0.149 0.949,0.073 1.52,-0.245 1.066,-0.599 2.135,-0.599 3.205,0 0.602,0.337 1.133,0.402 1.594,0.213 l 4.954,8.518 1.392,-3.611 3.969,0.515 -4.851,-9.039 z m -8.662,-0.354 c -4.144,0 -7.505,-3.359 -7.505,-7.502 0,-4.145 3.361,-7.5059998 7.505,-7.5059998 4.145,0 7.505,3.3609998 7.505,7.5059998 0,4.143 -3.361,7.502 -7.505,7.502 z"
     style="fill:#ff8833;fill-opacity:1" /><circle
     transform="translate(0,3.7269992)"
     sodipodi:ry="5.9000001"
     sodipodi:rx="5.9000001"
     sodipodi:cy="11.255"
     sodipodi:cx="13.512"
     id="circle5"
     r="5.9000001"
     cy="11.255"
     cx="13.512"
     style="fill:#ff8833;fill-opacity:1"
     d="m 19.412,11.255 c 0,3.25848 -2.64152,5.9 -5.9,5.9 -3.25848,0 -5.9,-2.64152 -5.9,-5.9 0,-3.25848 2.64152,-5.9 5.9,-5.9 3.25848,0 5.9,2.64152 5.9,5.9 z" /></g>
<g
   id="g7"
   transform="translate(0,3.7269992)">
</g>
<g
   id="g9"
   transform="translate(0,3.7269992)">
</g>
<g
   id="g11"
   transform="translate(0,3.7269992)">
</g>
<g
   id="g13"
   transform="translate(0,3.7269992)">
</g>
<g
   id="g15"
   transform="translate(0,3.7269992)">
</g>
<g
   id="g17"
   transform="translate(0,3.7269992)">
</g>
<g
   id="g19"
   transform="translate(0,3.7269992)">
</g>
<g
   id="g21"
   transform="translate(0,3.7269992)">
</g>
<g
   id="g23"
   transform="translate(0,3.7269992)">
</g>
<g
   id="g25"
   transform="translate(0,3.7269992)">
</g>
<g
   id="g27"
   transform="translate(0,3.7269992)">
</g>
<g
   id="g29"
   transform="translate(0,3.7269992)">
</g>
<g
   id="g31"
   transform="translate(0,3.7269992)">
</g>
<g
   id="g33"
   transform="translate(0,3.7269992)">
</g>
<g
   id="g35"
   transform="translate(0,3.7269992)">
</g>
</svg>