<?xml version="1.0" encoding="UTF-8" standalone="no"?>
<!-- Generator: Adobe Illustrator 17.1.0, SVG Export Plug-In . SVG Version: 6.00 Build 0)  -->

<svg
   xmlns:dc="http://purl.org/dc/elements/1.1/"
   xmlns:cc="http://creativecommons.org/ns#"
   xmlns:rdf="http://www.w3.org/1999/02/22-rdf-syntax-ns#"
   xmlns:svg="http://www.w3.org/2000/svg"
   xmlns="http://www.w3.org/2000/svg"
   xmlns:sodipodi="http://sodipodi.sourceforge.net/DTD/sodipodi-0.dtd"
   xmlns:inkscape="http://www.inkscape.org/namespaces/inkscape"
   version="1.1"
   id="Layer_1"
   x="0px"
   y="0px"
   viewBox="0 0 25 25"
   xml:space="preserve"
   inkscape:version="0.48.5 r10040"
   width="100%"
   height="100%"
   sodipodi:docname="explore.svg"><metadata
   id="metadata9"><rdf:RDF><cc:Work
       rdf:about=""><dc:format>image/svg+xml</dc:format><dc:type
         rdf:resource="http://purl.org/dc/dcmitype/StillImage" /></cc:Work></rdf:RDF></metadata><defs
   id="defs7" /><sodipodi:namedview
   pagecolor="#ffffff"
   bordercolor="#666666"
   borderopacity="1"
   objecttolerance="10"
   gridtolerance="10"
   guidetolerance="10"
   inkscape:pageopacity="0"
   inkscape:pageshadow="2"
   inkscape:window-width="1536"
   inkscape:window-height="803"
   id="namedview5"
   showgrid="false"
   inkscape:zoom="18.88"
   inkscape:cx="15.401201"
   inkscape:cy="12.556443"
   inkscape:window-x="-8"
   inkscape:window-y="-8"
   inkscape:window-maximized="1"
   inkscape:current-layer="Layer_1"
   fit-margin-top="0"
   fit-margin-left="0"
   fit-margin-right="0"
   fit-margin-bottom="0" />
<path
   style="fill:#666666"
   d="m 21.55853,11.603643 c -0.681435,0.764881 -1.34895,1.588853 -1.814836,2.725712 -0.21206,0.524978 -0.716197,0.86571 -1.282912,0.86571 -0.570175,0 -1.074283,-0.340732 -1.289831,-0.869168 -0.5389,-1.321162 -1.355925,-2.221606 -2.148622,-3.090774 -0.198139,-0.219035 -0.396335,-0.438072 -0.591014,-0.664055 -0.01046,0.0035 -0.01741,0.0069 -0.02782,0.01046 -0.77183,0.23293 -1.366331,1.255069 -1.008247,2.086016 0.243365,0.570173 1.950427,0.4624 1.804403,1.689652 -0.121674,1.004758 1.192491,1.268992 1.658378,1.220335 0.465887,-0.05562 1.182085,0.764882 0.820485,1.126455 -0.358085,0.361572 -1.036062,0.375494 -0.931747,1.30724 0.02782,0.27118 0.848329,0.236417 0.848329,0.646674 0,0.413716 -0.42415,0.88309 -0.09733,1.359383 0.06953,0.104292 0.142535,0.184245 0.219008,0.246822 -1.571446,1.446318 -3.667896,2.332868 -5.966,2.332868 -4.8569248,0 -8.8064604,-3.949507 -8.8064604,-8.806461 0,-1.474106 0.3650597,-2.864793 1.0082453,-4.088586 -0.00353,1.581907 0.8413526,2.896093 1.237687,3.292428 1.2933184,1.289831 3.1672734,0.883062 3.4071492,1.964319 0.243364,1.077799 -1.2863713,1.081258 -1.1855441,1.90523 0.1042861,0.82746 2.0964211,1.046496 1.6514321,1.80789 -0.5875554,1.011705 0.396334,1.084717 0.111261,2.332839 -0.15297,0.681434 0.8309189,0.813566 1.1959779,0.295535 0.278126,-0.396363 0.222495,-0.88309 0.782262,-1.477592 0.684896,-0.73012 2.273749,-0.848299 2.096422,-2.054741 C 12.946721,15.765264 10.999781,15.452376 10.151482,14.983 9.1884341,14.454569 9.4248511,13.18555 9.2162491,12.580615 8.9242011,11.721852 7.9333369,12.820519 7.4048722,12.319871 c -0.8691686,-0.820485 0.1564581,-1.98173 0.8865493,-1.957373 1.5401696,0.04868 2.0130025,1.547144 2.5796895,1.494973 0.552793,-0.04868 0.910905,-0.820485 1.008245,-1.230741 C 12.084498,9.733205 11.531677,10.133026 11.309183,9.667168 11.010188,9.044851 12.359137,8.4503202 12.880654,7.9914089 12.960604,7.9218809 13.019732,7.855819 13.051007,7.7932414 13.207466,7.4873005 13.002327,7.2543705 12.654672,7.0422825 11.959343,6.621591 10.690353,6.287835 10.631262,5.6307547 c -0.03479,-0.4033095 0.737067,-0.5979884 1.616641,-0.6327509 0.146025,0.00693 0.288561,0.020861 0.434585,0.034764 0.07301,-0.4137156 0.19122,-0.8204839 0.351138,-1.2098716 -0.420691,-0.055625 -0.8483,-0.083444 -1.282912,-0.083444 -5.5418487,0 -10.051096,4.5092475 -10.051096,10.0510968 0,5.54185 4.5093039,10.051097 10.051152,10.051097 5.541849,0 10.051125,-4.509276 10.051125,-10.051124 0,-0.750961 -0.08344,-1.484569 -0.243363,-2.186843 z"
   id="path2986" /><path
   style="fill:#ff5555"
   d="M 18.53125 1.15625 C 18.354964 1.1539713 18.18035 1.1704538 18 1.1875 C 15.1626 1.4557293 13.192347 4.1933029 13.6875 7 C 14.19047 9.8510071 16.820511 10.737166 18.125 13.9375 C 18.242556 14.22589 18.66378 14.225836 18.78125 13.9375 C 20.227342 10.388012 23.3125 9.6934967 23.3125 6 C 23.3125 3.3475922 21.175546 1.1904305 18.53125 1.15625 z M 18.46875 3.4375 C 19.88073 3.4375 21.03125 4.5880468 21.03125 6 C 21.03125 7.4119517 19.880702 8.5625 18.46875 8.5625 C 17.056798 8.5625 15.90625 7.4119802 15.90625 6 C 15.90625 4.5880468 17.05677 3.4375 18.46875 3.4375 z "
   id="path2984" />
</svg>