<?xml version="1.0" encoding="UTF-8" standalone="no"?>
<!-- Generator: Adobe Illustrator 17.0.0, SVG Export Plug-In . SVG Version: 6.00 Build 0)  -->

<svg
   xmlns:dc="http://purl.org/dc/elements/1.1/"
   xmlns:cc="http://creativecommons.org/ns#"
   xmlns:rdf="http://www.w3.org/1999/02/22-rdf-syntax-ns#"
   xmlns:svg="http://www.w3.org/2000/svg"
   xmlns="http://www.w3.org/2000/svg"
   xmlns:sodipodi="http://sodipodi.sourceforge.net/DTD/sodipodi-0.dtd"
   xmlns:inkscape="http://www.inkscape.org/namespaces/inkscape"
   version="1.1"
   id="Layer_1"
   x="0px"
   y="0px"
   width="800"
   height="800"
   viewBox="0 0 800 800"
   enable-background="new 0 0 792 612"
   xml:space="preserve"
   inkscape:version="0.48.5 r10040"
   sodipodi:docname="full-logo.svg"
   inkscape:export-filename="C:\Users\Chandima\Dropbox\EAD\Semester 3\EDP\icons\full-logo.png"
   inkscape:export-xdpi="33.75"
   inkscape:export-ydpi="33.75"><metadata
   id="metadata13"><rdf:RDF><cc:Work
       rdf:about=""><dc:format>image/svg+xml</dc:format><dc:type
         rdf:resource="http://purl.org/dc/dcmitype/StillImage" /><dc:title></dc:title></cc:Work></rdf:RDF></metadata><defs
   id="defs11" /><sodipodi:namedview
   pagecolor="#ffffff"
   bordercolor="#666666"
   borderopacity="1"
   objecttolerance="10"
   gridtolerance="10"
   guidetolerance="10"
   inkscape:pageopacity="0"
   inkscape:pageshadow="2"
   inkscape:window-width="1536"
   inkscape:window-height="803"
   id="namedview9"
   showgrid="false"
   inkscape:zoom="0.36111111"
   inkscape:cx="742.96829"
   inkscape:cy="226.64635"
   inkscape:window-x="-8"
   inkscape:window-y="-8"
   inkscape:window-maximized="1"
   inkscape:current-layer="Layer_1" />



<g
   id="g2997"
   transform="matrix(0.98605703,0,0,0.98605703,5.5771884,3.474787)"><g
     transform="matrix(1.2656771,0,0,1.2656771,-128.41497,-22.33407)"
     id="g2984"><path
       d="m 310.51838,128.87333 c 0,59.1843 48.15631,107.34061 107.33976,107.34061 59.18344,0 107.33974,-48.15631 107.33974,-107.34061 0,-59.184308 -48.15544,-107.348398 -107.33974,-107.348398 -59.18431,0 -107.33976,48.15545 -107.33976,107.348398 z m 190.20107,-18.67567 c -8.78799,-5.12583 -6.58861,0.73571 -6.58861,0.73571 0,0 0,0 5.86153,5.12583 5.86155,5.12582 10.25166,7.32434 8.05228,14.50084 -2.19937,7.17563 -5.86155,0.87663 -13.1781,6.73732 -7.32433,5.86154 8.788,7.32433 9.51507,16.11232 0.72707,8.788 -8.78799,4.39011 -13.1781,13.17811 -4.39011,8.78799 -0.73572,18.30305 -2.92645,26.36398 -2.19938,8.05227 -20.50244,19.03878 -27.14898,22.70181 -6.64654,3.66217 -2.14145,-8.05227 0,-16.11233 2.14146,-8.05228 -5.0679,-16.84027 -5.0679,-31.48981 0,-14.64953 -4.39011,-10.25079 -17.57599,-10.25079 -13.1781,0 -19.03878,-7.32433 -20.50244,-21.23815 -1.46366,-13.91382 10.98737,-27.82677 16.84027,-32.21688 5.8529,-4.390108 13.91382,-8.787998 21.96609,-4.390108 8.05228,4.390108 10.98738,8.787998 19.76673,8.787998 8.77934,0 8.78799,-2.92646 13.91382,-6.58862 5.12582,-3.662168 -7.32434,-8.052278 -14.6409,-7.291488 -7.32433,0.7608 -5.86154,-4.42296 -15.37661,-8.08513 -9.51507,-3.66216 -13.1781,3.66217 -16.11233,5.12583 -2.92645,1.46366 -13.1781,5.86155 -14.20257,0 -1.02534,-5.86154 5.41457,-6.58862 12.00406,-6.58862 6.58948,0 0.73572,-5.12583 -1.46366,-8.78799 -2.19938,-3.66217 -6.58862,-3.66217 -9.76319,-6.52291 -3.17457,-2.86075 3.90251,-8.12663 11.22685,-6.37422 7.32433,1.75241 4.3901,7.03559 12.45016,6.30765 8.05227,-0.73572 0,-8.05228 0,-15.14579 0,-7.0935 8.78799,-6.82031 14.64089,-9.64734 0.36397,-0.17377 0.74437,-0.0908 1.11612,-0.13227 2.71982,1.71091 5.34887,3.53854 7.8785,5.49757 3.35612,4.28204 6.63012,9.92054 9.30844,13.12796 1.29767,1.55444 3.03366,1.29767 4.87771,0.21527 12.87205,14.74031 21.47763,33.26643 23.81792,53.719588 -8.45082,2.41291 -8.3514,-3.20051 -15.51061,-7.37534 z M 417.85814,29.791612 c 3.77023,0 7.47389,0.25591 11.13606,0.67002 -1.36423,2.96795 -2.9593,5.05147 -2.9593,5.05147 0,0 -2.92644,9.51507 -9.51506,10.25165 -6.58862,0.73572 -14.6409,0 -18.30307,5.86155 -3.66216,5.86154 -2.92645,16.11233 -8.78799,10.25079 -5.86154,-5.86155 -0.73572,-6.30765 -6.58862,-12.30147 -5.86154,-6.0016 -7.32433,-6.0016 -10.25165,-6.0016 -0.58702,0 -1.22332,-0.71064 -1.82676,-1.8354 14.00286,-7.61482 30.04949,-11.94701 47.09639,-11.94701 z m -60.20965,20.57679 c 0.77722,0.75215 2.11638,1.59593 4.36503,2.53827 8.788,3.66217 10.8136,10.91216 6.7624,10.6234 -4.05122,-0.28097 -20.4938,1.95904 -5.36531,6.34915 15.12849,4.39011 13.8801,9.54014 7.15143,11.73951 -6.72954,2.19938 -5.29095,-7.30791 -6.75461,2.20716 -1.46366,9.51507 -2.94287,8.79578 -7.70473,10.25943 -4.76186,1.46366 -13.54985,8.787988 -13.54985,13.913818 0,5.12583 -2.9351,7.99435 2.92645,12.38446 5.86154,4.39011 -1.83541,12.42509 -4.60451,6.57219 -3.32327,-7.02694 -5.65492,-10.90437 -9.30845,-11.63145 -3.66216,-0.73571 -8.38253,5.12583 0,10.98738 8.38253,5.86154 8.788,9.51506 8.788,13.91381 0,4.39875 6.06817,4.39011 10.72282,3.66217 4.65465,-0.73572 14.21122,11.71445 17.49299,16.84027 3.274,5.12583 9.13554,10.25079 17.18695,12.45016 8.05228,2.19938 10.98737,7.32434 6.58862,10.98737 -4.39011,3.66217 -5.12583,12.45017 -10.25078,14.6409 -5.12583,2.19937 -5.86155,8.78799 -8.788,11.71444 -1.30631,1.30631 -2.54606,2.98437 -3.70367,4.81113 -4.92698,-2.76132 -9.6067,-5.91947 -13.97174,-9.458 -0.71065,-7.10994 -1.56221,-15.28584 -5.76212,-18.78289 -4.39011,-3.66216 -7.32434,-8.78799 -8.788,-14.64088 -1.46366,-5.86155 2.19938,-14.6409 -0.73572,-20.50244 -2.92645,-5.86155 -2.92645,-0.36397 -8.78799,-8.60645 -5.86154,-8.23382 -5.86154,-8.23382 -9.51507,-14.83109 -1.17404,-2.11638 -2.08353,-5.06789 -2.82702,-8.30818 2.48813,-28.423298 17.01317,-53.365118 38.43288,-69.833638 z"
       id="path3"
       style="fill:#4486f7;fill-opacity:1"
       inkscape:connector-curvature="0" /><path
       d="m 304.97758,176.12879 c 0,0 -4.55091,-13.6778 -20.7471,-8.3393 -14.72735,4.85522 -8.68252,21.30732 -8.68252,21.30732 l 15.50111,47.02031 c 0,0 5.46213,14.25358 0.0475,17.02614 -8.10761,4.05034 -15.37835,-11.34789 -15.37835,-11.34789 l -29.9803,-54.31783 17.01923,-90.792568 c 0,0 5.42669,-18.65405 -7.26555,-23.30438 -9.02141,-3.06219 -15.66537,-0.096 -21.18283,15.20284 -5.67048,16.209148 -34.12664,95.653828 -34.12664,95.653828 v 98.09009 l 81.95616,109.90828 2.51839,77.49083 h 92.52164 V 334.21413 L 304.97758,176.12879 z"
       id="path5"
       style="fill:#666666"
       inkscape:connector-curvature="0" /><path
       d="m 457.81346,334.21413 v 135.51146 h 92.52163 l 2.51839,-77.49082 81.95615,-109.90828 v -98.0901 c 0,0 -28.4553,-79.44467 -34.12664,-95.653828 -5.51746,-15.2988 -12.16227,-18.26502 -21.18283,-15.20284 -12.69223,4.65033 -7.26554,23.30439 -7.26554,23.30439 l 17.01923,90.792558 -29.98034,54.31784 c 0,0 -7.27073,15.39909 -15.37834,11.34788 -5.41458,-2.77256 0.0476,-17.02614 0.0476,-17.02614 l 15.5011,-47.02031 c 0,0 6.04483,-16.45209 -8.68252,-21.30732 -16.19619,-5.33936 -20.7471,8.3393 -20.7471,8.3393 l -72.20077,158.08621 z"
       id="path7"
       style="fill:#666666"
       inkscape:connector-curvature="0" /></g><text
     sodipodi:linespacing="125%"
     id="text2989"
     y="692.79578"
     x="70.358116"
     style="font-size:147.91993713px;font-style:normal;font-variant:normal;font-weight:normal;font-stretch:normal;line-height:125%;letter-spacing:0px;word-spacing:0px;fill:#666666;fill-opacity:1;stroke:none;font-family:Segoe UI;-inkscape-font-specification:Segoe UI"
     xml:space="preserve"><tspan
       style="font-weight:bold;-inkscape-font-specification:Segoe UI Bold"
       y="692.79578"
       x="70.358116"
       id="tspan2991"
       sodipodi:role="line">Harmony</tspan></text>
<text
     sodipodi:linespacing="125%"
     id="text2993"
     y="781.68835"
     x="12.696206"
     style="font-size:75.06370544px;font-style:normal;font-weight:normal;line-height:125%;letter-spacing:0px;word-spacing:0px;fill:#000000;fill-opacity:1;stroke:none;font-family:Sans"
     xml:space="preserve"><tspan
       style="font-style:normal;font-variant:normal;font-weight:normal;font-stretch:normal;fill:#666666;font-family:Segoe UI;-inkscape-font-specification:Segoe UI"
       y="781.68835"
       x="12.696206"
       id="tspan2995"
       sodipodi:role="line">Global Charity Network</tspan></text>
</g></svg>