<?xml version="1.0" encoding="UTF-8" standalone="no"?>
<svg
   xmlns:dc="http://purl.org/dc/elements/1.1/"
   xmlns:cc="http://creativecommons.org/ns#"
   xmlns:rdf="http://www.w3.org/1999/02/22-rdf-syntax-ns#"
   xmlns:svg="http://www.w3.org/2000/svg"
   xmlns="http://www.w3.org/2000/svg"
   xmlns:sodipodi="http://sodipodi.sourceforge.net/DTD/sodipodi-0.dtd"
   xmlns:inkscape="http://www.inkscape.org/namespaces/inkscape"
   enable-background="new 0 0 304.008 512"
   height="512"
   id="Layer_1"
   version="1.1"
   viewBox="0 0 512.00001 512"
   width="512"
   xml:space="preserve"
   inkscape:version="0.48.5 r10040"
   sodipodi:docname="green-light.svg"><metadata
     id="metadata11"><rdf:RDF><cc:Work
         rdf:about=""><dc:format>image/svg+xml</dc:format><dc:type
           rdf:resource="http://purl.org/dc/dcmitype/StillImage" /></cc:Work></rdf:RDF></metadata><defs
     id="defs9" /><sodipodi:namedview
     pagecolor="#ffffff"
     bordercolor="#666666"
     borderopacity="1"
     objecttolerance="10"
     gridtolerance="10"
     guidetolerance="10"
     inkscape:pageopacity="0"
     inkscape:pageshadow="2"
     inkscape:window-width="1536"
     inkscape:window-height="803"
     id="namedview7"
     showgrid="false"
     inkscape:zoom="1"
     inkscape:cx="311.06748"
     inkscape:cy="256"
     inkscape:window-x="-8"
     inkscape:window-y="-8"
     inkscape:window-maximized="1"
     inkscape:current-layer="Layer_1" /><path
     sodipodi:type="arc"
     style="fill:#6dbe45;fill-opacity:1;stroke:#ffffff;stroke-opacity:1"
     id="path3756"
     sodipodi:cx="259.25424"
     sodipodi:cy="368.81357"
     sodipodi:rx="68.338982"
     sodipodi:ry="65.084747"
     d="m 327.59322,368.81357 a 68.338982,65.084747 0 1 1 -136.67796,0 68.338982,65.084747 0 1 1 136.67796,0 z"
     transform="translate(-4.3389831,2.1694866)" /><path
     sodipodi:type="arc"
     style="fill:#aaaaaa;fill-opacity:1;stroke:#ffffff;stroke-opacity:1"
     id="path3756-1"
     sodipodi:cx="259.25424"
     sodipodi:cy="368.81357"
     sodipodi:rx="68.338982"
     sodipodi:ry="65.084747"
     d="m 327.59322,368.81357 a 68.338982,65.084747 0 1 1 -136.67796,0 68.338982,65.084747 0 1 1 136.67796,0 z"
     transform="translate(1.0847462,-123.66103)" /><path
     sodipodi:type="arc"
     style="fill:#aaaaaa;fill-opacity:1;stroke:#ffffff;stroke-opacity:1"
     id="path3756-1-4"
     sodipodi:cx="259.25424"
     sodipodi:cy="368.81357"
     sodipodi:rx="68.338982"
     sodipodi:ry="65.084747"
     d="m 327.59322,368.81357 a 68.338982,65.084747 0 1 1 -136.67796,0 68.338982,65.084747 0 1 1 136.67796,0 z"
     transform="translate(-2.7118636,-255.67798)" /><g
     id="meanicons_x5F_11"
     style="fill:#99999f;fill-opacity:1"
     transform="matrix(0.93577374,0,0,0.93577374,113.43581,17.377696)"><path
       d="M 304.354,184.504 H 252.516 V 157.102 C 276.62,138.831 294.979,114.26 304.354,85.954 H 252.516 V 66.961 C 252.516,29.418 222.066,-1 184.579,-1 H 120.073 C 82.573,-1 52.182,29.418 52.182,66.961 V 85.953 H 0.344 c 9.374,28.308 27.688,52.877 51.838,71.148 v 27.402 H 0.344 c 9.374,28.326 27.688,52.896 51.838,71.172 v 27.401 H 0.344 c 9.374,28.28 27.688,52.897 51.838,71.168 v 56.366 c 0,37.516 30.391,67.962 67.891,67.962 h 10.8 V 511 h 42.906 v -32.426 h 10.799 c 37.487,0 67.937,-30.447 67.937,-67.963 v -56.365 c 24.104,-18.271 42.464,-42.888 51.838,-71.168 h -51.838 v -27.443 c 24.105,-18.234 42.464,-42.805 51.839,-71.131 z M 152.32,426.201 c -27.49,0 -49.842,-22.349 -49.842,-49.834 0,-27.549 22.352,-49.901 49.842,-49.901 27.56,0 49.854,22.353 49.854,49.901 0,27.487 -22.294,49.834 -49.854,49.834 z m 0,-137.572 c -27.49,0 -49.842,-22.308 -49.842,-49.834 0,-27.547 22.352,-49.877 49.842,-49.877 27.56,0 49.854,22.33 49.854,49.877 0,27.527 -22.294,49.834 -49.854,49.834 z m 0,-137.611 c -27.49,0 -49.842,-22.266 -49.842,-49.834 0,-27.506 22.352,-49.813 49.842,-49.813 27.56,0 49.854,22.307 49.854,49.813 0,27.568 -22.294,49.834 -49.854,49.834 z"
       id="path4"
       style="fill:#99999f;fill-opacity:1"
       inkscape:connector-curvature="0" /></g><g
     id="Layer_1_1_" /></svg>