<?xml version="1.0" encoding="UTF-8" standalone="no"?>
<!-- Generator: Adobe Illustrator 16.0.4, SVG Export Plug-In . SVG Version: 6.00 Build 0)  -->

<svg
   xmlns:dc="http://purl.org/dc/elements/1.1/"
   xmlns:cc="http://creativecommons.org/ns#"
   xmlns:rdf="http://www.w3.org/1999/02/22-rdf-syntax-ns#"
   xmlns:svg="http://www.w3.org/2000/svg"
   xmlns="http://www.w3.org/2000/svg"
   xmlns:sodipodi="http://sodipodi.sourceforge.net/DTD/sodipodi-0.dtd"
   xmlns:inkscape="http://www.inkscape.org/namespaces/inkscape"
   version="1.1"
   id="Capa_1"
   x="0px"
   y="0px"
   width="25"
   height="25"
   viewBox="0 0 25 25"
   enable-background="new 0 0 14.182 23.305"
   xml:space="preserve"
   inkscape:version="0.48.5 r10040"
   sodipodi:docname="select.svg"><metadata
   id="metadata9"><rdf:RDF><cc:Work
       rdf:about=""><dc:format>image/svg+xml</dc:format><dc:type
         rdf:resource="http://purl.org/dc/dcmitype/StillImage" /></cc:Work></rdf:RDF></metadata><defs
   id="defs7" /><sodipodi:namedview
   pagecolor="#ffffff"
   bordercolor="#666666"
   borderopacity="1"
   objecttolerance="10"
   gridtolerance="10"
   guidetolerance="10"
   inkscape:pageopacity="0"
   inkscape:pageshadow="2"
   inkscape:window-width="1536"
   inkscape:window-height="803"
   id="namedview5"
   showgrid="false"
   inkscape:zoom="10.126582"
   inkscape:cx="-4.7096252"
   inkscape:cy="11.6525"
   inkscape:window-x="-8"
   inkscape:window-y="-8"
   inkscape:window-maximized="1"
   inkscape:current-layer="Capa_1" />
<path
   d="m 19.57854,14.144951 c 0,0 -0.093,-1.087 -0.807,-1.684 -0.399,-0.338 -0.781,-0.382 -1.052,-0.356 v 2.044 h -0.489 v -2.239 c -0.146,-0.317 -0.438,-0.807 -0.902,-0.991 -0.462,-0.186 -0.935,-0.14 -1.225,-0.084 v 2.307 h -0.487 v -2.59 c -0.207,-0.249 -0.579,-0.546 -1.231,-0.5849998 -0.352,-0.021 -0.666,0.1209998 -0.914,0.2769998 l -0.048,2.217 h -0.49 l 0.015,-4.0250001 c 1.58,-0.495 2.735,-1.953 2.735,-3.698 -0.001,-2.149 -1.743,-3.89000003 -3.891,-3.89000003 -2.149,0 -3.89,1.74100003 -3.89,3.89100003 0,1.682 1.071,3.102 2.5649999,3.645 v 6.8310001 c 0,0 -1.2579999,-2.707 -2.3269999,-3.064 -1.067,-0.356 -1.731,0.285 -1.731,0.285 0,0 1.212,2.246 2.101,4.736 0.571,1.602 0.742,3.459 1.246,4.379 1.281,2.351 2.917,2.595 4.891,2.595 1.97,0 4.65,0.183 5.362,-1.456 0.713,-1.637 0.569,-8.545 0.569,-8.545 z M 8.57654,4.7369509 c 0,-1.223 0.9919999,-2.216 2.216,-2.216 1.223,0 2.216,0.993 2.216,2.216 0,0.797 -0.424,1.488 -1.053,1.879 l 0.005,-1.433 c 0,0 -0.287,-1.492 -1.211,-1.492 -0.9270001,0 -1.2810001,1.28 -1.2810001,1.28 v 1.533 c -0.5379999,-0.403 -0.8919999,-1.041 -0.8919999,-1.767 z"
   id="path3"
   style="fill:#666666"
   inkscape:connector-curvature="0" />
</svg>